# xmcd
#
# Track frame offsets:
#	150
#	5736
#	8940
#	11085
#	12735
#	14438
#	15990
#	17662
#	20542
#	22605
#	24786
#	26865
#	28979
#	30854
#	33037
#	34974
#	37350
#	40026
#	41579
#	43275
#	44925
#	46575
#	48225
#	50422
#	52137
#	53715
#	55125
#	57300
#	59047
#	60730
#	62366
#	64096
#	65760
#	67281
#	68745
#	70194
#	71781
#	73269
#	74948
#	76544
#	78225
#	79829
#	81375
#	84172
#	85717
#	87360
#	88521
#	89564
#	90637
#	91695
#	94372
#	96075
#	97710
#	99773
#	101856
#	104175
#	105952
#	107325
#	108651
#	109951
#	111786
#	116175
#	120997
#	123622
#	127522
#	134318
#	141000
#	148462
#	155670
#	158370
#	162263
#	178470
#	189998
#	205349
#	223762
#	239625
#	245610
#	258727
#	272362
#	280777
#
# Disc length: 3943 seconds
#
# Revision: 1
# Processed by: cddbd v1.5.1PL0 Copyright (c) Steve Scherf et al.
# Submitted via: CDex 1.50Beta5
#
DISCID=6e0f6550
DTITLE=明日香出版社 - TOEIC TEST 730
DYEAR=1900
DGENRE=Other
TTITLE0=01
TTITLE1=02
TTITLE2=03
TTITLE3=04
TTITLE4=05
TTITLE5=06
TTITLE6=07
TTITLE7=08
TTITLE8=09
TTITLE9=10
TTITLE10=11
TTITLE11=12
TTITLE12=13
TTITLE13=14
TTITLE14=15
TTITLE15=16
TTITLE16=17
TTITLE17=18
TTITLE18=19
TTITLE19=20
TTITLE20=21
TTITLE21=22
TTITLE22=23
TTITLE23=24
TTITLE24=25
TTITLE25=26
TTITLE26=27
TTITLE27=28
TTITLE28=29
TTITLE29=30
TTITLE30=31
TTITLE31=32
TTITLE32=33
TTITLE33=34
TTITLE34=35
TTITLE35=36
TTITLE36=37
TTITLE37=38
TTITLE38=39
TTITLE39=40
TTITLE40=41
TTITLE41=42
TTITLE42=43
TTITLE43=44
TTITLE44=45
TTITLE45=46
TTITLE46=47
TTITLE47=48
TTITLE48=49
TTITLE49=50
TTITLE50=51
TTITLE51=52
TTITLE52=53
TTITLE53=54
TTITLE54=55
TTITLE55=56
TTITLE56=57
TTITLE57=58
TTITLE58=59
TTITLE59=60
TTITLE60=61
TTITLE61=62
TTITLE62=63
TTITLE63=64
TTITLE64=65
TTITLE65=66
TTITLE66=67
TTITLE67=68
TTITLE68=69
TTITLE69=70
TTITLE70=71
TTITLE71=72
TTITLE72=73
TTITLE73=74
TTITLE74=75
TTITLE75=76
TTITLE76=77
TTITLE77=78
TTITLE78=79
TTITLE79=80
EXTD=
EXTT0=
EXTT1=
EXTT2=
EXTT3=
EXTT4=
EXTT5=
EXTT6=
EXTT7=
EXTT8=
EXTT9=
EXTT10=
EXTT11=
EXTT12=
EXTT13=
EXTT14=
EXTT15=
EXTT16=
EXTT17=
EXTT18=
EXTT19=
EXTT20=
EXTT21=
EXTT22=
EXTT23=
EXTT24=
EXTT25=
EXTT26=
EXTT27=
EXTT28=
EXTT29=
EXTT30=
EXTT31=
EXTT32=
EXTT33=
EXTT34=
EXTT35=
EXTT36=
EXTT37=
EXTT38=
EXTT39=
EXTT40=
EXTT41=
EXTT42=
EXTT43=
EXTT44=
EXTT45=
EXTT46=
EXTT47=
EXTT48=
EXTT49=
EXTT50=
EXTT51=
EXTT52=
EXTT53=
EXTT54=
EXTT55=
EXTT56=
EXTT57=
EXTT58=
EXTT59=
EXTT60=
EXTT61=
EXTT62=
EXTT63=
EXTT64=
EXTT65=
EXTT66=
EXTT67=
EXTT68=
EXTT69=
EXTT70=
EXTT71=
EXTT72=
EXTT73=
EXTT74=
EXTT75=
EXTT76=
EXTT77=
EXTT78=
EXTT79=
PLAYORDER=
